<svg width="20" height="18" viewBox="0 0 20 18" fill="none" xmlns="http://www.w3.org/2000/svg">
<path d="M10.0004 1.56105C8.91084 0.559156 7.48465 0.00309831 6.00444 0.00305176C5.22098 0.00386746 4.44541 0.159611 3.72238 0.46132C2.99934 0.763029 2.3431 1.20475 1.79144 1.76105C-0.561562 4.12405 -0.560562 7.82005 1.79344 10.1731L9.12544 17.5051C9.29544 17.8041 9.62344 17.9971 10.0004 17.9971C10.1552 17.9955 10.3075 17.9578 10.4451 17.8867C10.5826 17.8157 10.7016 17.7134 10.7924 17.5881L18.2074 10.1731C20.5614 7.81905 20.5614 4.12405 18.2054 1.75705C17.654 1.20177 16.9983 0.760949 16.276 0.459935C15.5537 0.158921 14.779 0.00365136 13.9964 0.00305176C12.5163 0.00329372 11.0901 0.559324 10.0004 1.56105ZM16.7914 3.17105C18.3544 4.74205 18.3554 7.19605 16.7934 8.75905L10.0004 15.5521L3.20744 8.75905C1.64544 7.19605 1.64644 4.74205 3.20544 3.17505C3.96544 2.41905 4.95944 2.00305 6.00444 2.00305C7.04944 2.00305 8.03944 2.41905 8.79344 3.17305L9.29344 3.67305C9.38623 3.766 9.49643 3.83974 9.61775 3.89005C9.73906 3.94036 9.86911 3.96625 10.0004 3.96625C10.1318 3.96625 10.2618 3.94036 10.3831 3.89005C10.5044 3.83974 10.6147 3.766 10.7074 3.67305L11.2074 3.17305C12.7194 1.66405 15.2814 1.66805 16.7914 3.17105Z" fill="black"/>
</svg>
